<svg width="33" height="99" viewBox="0 0 33 99" fill="none" xmlns="http://www.w3.org/2000/svg">
<path d="M4.61207 0.469938C3.21476 -0.420387 1.36026 -0.00938964 0.469938 1.38793C-0.420387 2.78524 -0.00938964 4.63974 1.38793 5.53006L3 3L4.61207 0.469938ZM0 95.5C0 97.1569 1.34315 98.5 3 98.5H30C31.6569 98.5 33 97.1569 33 95.5C33 93.8431 31.6569 92.5 30 92.5H6V68.5C6 66.8431 4.65685 65.5 3 65.5C1.34315 65.5 0 66.8431 0 68.5V95.5ZM3 3L1.38793 5.53006C10.336 11.2315 20.9876 22.4446 24.0744 37.4062C27.1155 52.1466 22.9627 71.2947 0.87868 93.3787L3 95.5L5.12132 97.6213C28.2373 74.5053 33.5012 53.4034 29.9506 36.1938C26.4457 19.2054 14.4974 6.76853 4.61207 0.469938L3 3Z" fill="#8963D6"/>
</svg>
