<svg width="92" height="44" viewBox="0 0 92 44" fill="none" xmlns="http://www.w3.org/2000/svg">
<path d="M1.84381 29.825C0.42243 28.9736 -0.0396455 27.1312 0.811734 25.7098C1.66311 24.2884 3.50555 23.8264 4.92693 24.6777L3.38537 27.2514L1.84381 29.825ZM43.4803 29.4304L42.6801 26.539L43.4803 29.4304ZM91.2517 25.936C92.0615 27.3815 91.5462 29.2097 90.1008 30.0196L66.5457 43.2165C65.1003 44.0264 63.272 43.5111 62.4622 42.0656C61.6523 40.6202 62.1676 38.7919 63.6131 37.9821L84.5509 26.2515L72.8202 5.31363C72.0104 3.86818 72.5257 2.03991 73.9711 1.23008C75.4166 0.420246 77.2449 0.935522 78.0547 2.38098L91.2517 25.936ZM3.38537 27.2514L4.92693 24.6777C7.22415 26.0537 11.0449 28.0305 17.0277 28.9294C23.0318 29.8316 31.3653 29.6703 42.6801 26.539L43.4803 29.4304L44.2804 32.3217C32.2732 35.6445 23.0857 35.907 16.1361 34.8628C9.16523 33.8154 4.5995 31.4756 1.84381 29.825L3.38537 27.2514ZM43.4803 29.4304L42.6801 26.539C63.0031 20.9148 76.6056 20.8953 89.4482 24.5148L88.6344 27.4024L87.8206 30.2899C76.3035 27.0439 63.8553 26.9045 44.2804 32.3217L43.4803 29.4304Z" fill="#8963D6"/>
</svg>
