<svg width="92" height="44" viewBox="0 0 92 44" fill="none" xmlns="http://www.w3.org/2000/svg">
<path d="M89.8146 29.825C91.236 28.9736 91.6981 27.1312 90.8467 25.7098C89.9953 24.2884 88.1529 23.8264 86.7315 24.6777L88.2731 27.2514L89.8146 29.825ZM48.1782 29.4304L48.9783 26.539L48.1782 29.4304ZM0.406788 25.936C-0.403043 27.3815 0.11223 29.2097 1.55768 30.0196L25.1127 43.2165C26.5582 44.0264 28.3865 43.5111 29.1963 42.0656C30.0061 40.6202 29.4908 38.7919 28.0454 37.9821L7.10757 26.2515L18.8382 5.31363C19.648 3.86818 19.1328 2.03991 17.6873 1.23008C16.2419 0.420246 14.4136 0.935522 13.6038 2.38098L0.406788 25.936ZM88.2731 27.2514L86.7315 24.6777C84.4343 26.0537 80.6136 28.0305 74.6308 28.9294C68.6267 29.8316 60.2931 29.6703 48.9783 26.539L48.1782 29.4304L47.378 32.3217C59.3852 35.6445 68.5727 35.907 75.5223 34.8628C82.4932 33.8154 87.0589 31.4756 89.8146 29.825L88.2731 27.2514ZM48.1782 29.4304L48.9783 26.539C28.6553 20.9148 15.0528 20.8953 2.21021 24.5148L3.02401 27.4024L3.83782 30.2899C15.3549 27.0439 27.8032 26.9045 47.378 32.3217L48.1782 29.4304Z" fill="#8963D6"/>
</svg>
