<svg width="168" height="201" viewBox="0 0 168 201" fill="none" xmlns="http://www.w3.org/2000/svg">
<path d="M3.28937 185.223C1.67328 184.858 0.659257 183.251 1.0245 181.635L6.97642 155.299C7.34166 153.683 8.94785 152.669 10.5639 153.035C12.18 153.4 13.1941 155.006 12.8288 156.622L7.53822 180.032L30.9478 185.322C32.5639 185.688 33.5779 187.294 33.2127 188.91C32.8475 190.526 31.2413 191.54 29.6252 191.175L3.28937 185.223ZM162.679 1.76251C163.775 0.519881 165.671 0.400949 166.914 1.49687C168.156 2.59279 168.275 4.48856 167.179 5.73119L164.929 3.74685L162.679 1.76251ZM3.9507 182.297L2.34919 179.76C4.9062 178.146 10.1125 175.715 16.9265 172.89C23.8184 170.033 32.5563 166.692 42.3211 163.262C61.8372 156.407 85.5612 149.159 106.94 144.709C117.625 142.485 127.799 140.944 136.606 140.517C145.326 140.095 153.076 140.741 158.679 143.191C161.53 144.437 163.965 146.212 165.623 148.681C167.299 151.178 168.019 154.146 167.826 157.47C167.451 163.923 163.627 171.941 156.32 181.748L153.915 179.956L151.509 178.163C158.658 168.569 161.567 161.744 161.836 157.122C161.965 154.908 161.484 153.281 160.641 152.025C159.78 150.742 158.377 149.607 156.276 148.688C151.975 146.808 145.364 146.1 136.897 146.51C128.518 146.916 118.68 148.394 108.162 150.583C87.1334 154.96 63.6802 162.119 44.3095 168.923C34.631 172.322 25.998 175.624 19.2242 178.432C12.3725 181.273 7.61821 183.529 5.55221 184.833L3.9507 182.297ZM153.915 179.956L156.32 181.748C149.048 191.508 142.655 197.462 136.987 199.568C134.031 200.667 131.117 200.773 128.441 199.644C125.822 198.539 123.832 196.42 122.328 193.842C119.373 188.773 117.785 181.053 117.144 171.956C116.495 162.752 116.794 151.74 117.894 139.792C120.094 115.892 125.528 87.9807 133.245 62.8159C140.93 37.7524 151.001 15.004 162.679 1.76251L164.929 3.74685L167.179 5.73119C156.382 17.9742 146.61 39.6949 138.981 64.5748C131.383 89.3533 126.031 116.86 123.869 140.342C122.787 152.084 122.51 162.754 123.129 171.534C123.755 180.421 125.277 186.988 127.512 190.819C128.603 192.691 129.728 193.675 130.773 194.116C131.761 194.532 133.061 194.626 134.897 193.944C138.816 192.488 144.325 187.804 151.509 178.163L153.915 179.956Z" fill="#8963D6"/>
</svg>
