<svg width="163" height="222" viewBox="0 0 163 222" fill="none" xmlns="http://www.w3.org/2000/svg">
<path d="M16.0495 220.26C16.9849 221.628 18.8518 221.978 20.2194 221.043L42.505 205.8C43.8726 204.864 44.2229 202.998 43.2876 201.63C42.3522 200.262 40.4853 199.912 39.1177 200.847L19.3082 214.397L5.75889 194.587C4.82351 193.22 2.9566 192.869 1.58904 193.805C0.221483 194.74 -0.128864 196.607 0.806521 197.975L16.0495 220.26ZM86.9725 110.007L87.7131 112.914L87.7131 112.914L86.9725 110.007ZM161.876 4.10644C162.491 2.56787 161.742 0.82223 160.204 0.207442C158.665 -0.407346 156.919 0.341528 156.305 1.8801L159.09 2.99327L161.876 4.10644ZM18.5257 218.567L21.4742 219.12C21.9097 216.799 22.2194 213.605 22.5612 209.951C22.9085 206.238 23.2987 201.921 23.8893 197.166C25.0704 187.659 27.0417 176.51 30.9939 165.4C38.8643 143.276 54.5375 121.366 87.7131 112.914L86.9725 110.007L86.2318 107.1C50.6216 116.172 33.6889 139.923 25.341 163.389C21.1841 175.074 19.1432 186.701 17.9351 196.427C17.331 201.289 16.9324 205.702 16.5872 209.392C16.2366 213.142 15.9504 216.025 15.5772 218.013L18.5257 218.567ZM86.9725 110.007L87.7131 112.914C118.304 105.121 133.381 86.5277 142.523 65.5038C147.056 55.0788 150.145 44.0336 152.969 33.4992C155.816 22.8813 158.378 12.8613 161.876 4.10644L159.09 2.99327L156.305 1.8801C152.642 11.0459 149.979 21.4851 147.174 31.9453C144.347 42.489 141.356 53.1406 137.021 63.1111C128.425 82.8783 114.603 99.8717 86.2318 107.1L86.9725 110.007Z" fill="#8963D6"/>
</svg>
