<svg width="170" height="203" viewBox="0 0 170 203" fill="none" xmlns="http://www.w3.org/2000/svg">
<path d="M4.06893 187.198C1.91414 186.711 0.56211 184.57 1.0491 182.415L8.98499 147.3C9.47198 145.146 11.6136 143.794 13.7684 144.281C15.9232 144.768 17.2752 146.909 16.7882 149.064L9.73406 180.277L40.9469 187.331C43.1017 187.818 44.4537 189.959 43.9667 192.114C43.4797 194.269 41.3381 195.621 39.1833 195.134L4.06893 187.198ZM162.929 2.10106C164.391 0.444225 166.918 0.28565 168.575 1.74688C170.232 3.2081 170.39 5.73579 168.929 7.39263L165.929 4.74685L162.929 2.10106ZM4.9507 183.297L2.81535 179.914C5.4542 178.248 10.7358 175.788 17.5436 172.966C24.4552 170.101 33.2105 166.753 42.9897 163.318C62.53 156.455 86.2991 149.192 107.736 144.73C118.45 142.5 128.679 140.949 137.558 140.519C146.319 140.094 154.26 140.73 160.08 143.275C163.055 144.576 165.662 146.457 167.453 149.124C169.268 151.828 170.028 155.019 169.824 158.528C169.431 165.286 165.455 173.503 158.122 183.345L154.915 180.956L151.707 178.566C158.829 169.006 161.587 162.381 161.838 158.064C161.956 156.035 161.515 154.631 160.811 153.583C160.082 152.497 158.851 151.469 156.875 150.605C152.791 148.819 146.37 148.101 137.945 148.509C129.638 148.912 119.856 150.379 109.366 152.562C88.3954 156.927 64.9874 164.071 45.6409 170.866C35.9767 174.261 27.3613 177.556 20.6071 180.356C13.7492 183.199 9.07021 185.426 7.08604 186.679L4.9507 183.297ZM154.915 180.956L158.122 183.345C150.835 193.126 144.295 199.291 138.336 201.505C135.193 202.673 132.01 202.813 129.052 201.565C126.171 200.35 124.037 198.042 122.465 195.345C119.389 190.071 117.79 182.159 117.146 173.026C116.493 163.752 116.795 152.683 117.898 140.7C120.105 116.731 125.552 88.7519 133.289 63.5227C140.983 38.4286 151.104 15.509 162.929 2.10106L165.929 4.74685L168.929 7.39263C158.278 19.4692 148.557 41.0187 140.937 65.868C133.359 90.5821 128.02 118.021 125.864 141.433C124.786 153.142 124.513 163.754 125.127 172.464C125.75 181.316 127.261 187.69 129.375 191.315C130.398 193.069 131.379 193.864 132.161 194.194C132.868 194.492 133.899 194.62 135.549 194.006C139.176 192.659 144.538 188.187 151.707 178.566L154.915 180.956Z" fill="#8963D6"/>
</svg>
