<svg width="173" height="205" viewBox="0 0 173 205" fill="none" xmlns="http://www.w3.org/2000/svg">
<path d="M4.73827 189.661C1.77543 188.992 -0.0836099 186.047 0.585996 183.084L11.4979 134.802C12.1675 131.839 15.1121 129.98 18.075 130.65C21.0378 131.319 22.8969 134.264 22.2273 137.227L12.5278 180.144L55.4454 189.844C58.4083 190.513 60.2673 193.458 59.5977 196.421C58.9281 199.384 55.9834 201.243 53.0206 200.573L4.73827 189.661ZM162.804 2.10889C164.814 -0.169258 168.289 -0.387299 170.567 1.62189C172.845 3.63107 173.063 7.10665 171.054 9.3848L166.929 5.74685L162.804 2.10889ZM5.9507 184.297L3.0146 179.646C5.7762 177.902 11.1708 175.399 17.9692 172.58C24.9103 169.703 33.6918 166.346 43.4926 162.903C63.0693 156.027 86.9061 148.741 108.43 144.261C119.186 142.023 129.499 140.456 138.486 140.02C147.31 139.593 155.535 140.213 161.681 142.9C164.844 144.283 167.709 146.324 169.698 149.288C171.722 152.302 172.542 155.829 172.322 159.615C171.902 166.831 167.698 175.346 160.325 185.242L155.915 181.956L151.504 178.669C158.587 169.163 161.116 162.836 161.34 158.977C161.442 157.226 161.061 156.157 160.565 155.419C160.036 154.63 159.063 153.761 157.274 152.979C153.515 151.336 147.38 150.603 139.018 151.008C130.818 151.405 121.12 152.856 110.672 155.031C89.7884 159.377 66.4481 166.499 47.1381 173.282C37.4954 176.669 28.9061 179.954 22.1816 182.742C15.3142 185.589 10.7482 187.772 8.8868 188.947L5.9507 184.297ZM155.915 181.956L160.325 185.242C153.016 195.052 146.255 201.535 139.858 203.911C136.436 205.183 132.849 205.373 129.469 203.947C126.194 202.566 123.844 199.974 122.169 197.101C118.913 191.517 117.297 183.317 116.65 174.132C115.989 164.752 116.296 153.597 117.404 141.562C119.621 117.489 125.089 89.4088 132.855 64.083C140.563 38.943 150.759 15.7665 162.804 2.10889L166.929 5.74685L171.054 9.3848C160.624 21.2118 150.977 42.5043 143.371 67.3077C135.823 91.9253 130.504 119.263 128.358 142.571C127.285 154.228 127.017 164.754 127.623 173.359C128.243 182.158 129.738 188.244 131.671 191.56C132.591 193.137 133.355 193.648 133.744 193.812C134.029 193.932 134.656 194.11 136.027 193.6C139.216 192.415 144.358 188.261 151.504 178.669L155.915 181.956Z" fill="#8963D6"/>
</svg>
