<svg width="75" height="69" viewBox="0 0 75 69" fill="none" xmlns="http://www.w3.org/2000/svg">
<path d="M48.2317 21.2812C49.2942 21.6675 50.4098 21.9279 51.5442 22.0538C52.6504 22.1263 53.7556 22.1263 54.8598 22.0538C55.0864 22.0464 55.301 21.9587 55.4584 21.8092C55.6158 21.6598 55.7037 21.4602 55.7035 21.2526C55.7035 21.0477 55.6146 20.8511 55.4564 20.7062C55.2982 20.5614 55.0836 20.48 54.8598 20.48C53.8137 20.4676 52.7697 20.3911 51.7348 20.251C50.7748 20.1019 49.8393 19.8423 48.9504 19.4784C47.2238 18.994 45.7654 17.9224 44.875 16.4839C43.9845 15.0453 43.7297 13.349 44.1629 11.7437C44.7879 9.79787 45.9754 8.04662 47.6035 6.67308C49.919 4.47732 53.0382 3.14146 56.3629 2.92162C61.8973 2.6927 65.0567 7.13093 65.4317 11.5148C65.66 12.6508 65.6224 13.8183 65.3213 14.9401C65.0202 16.0618 64.4624 17.1122 63.6849 18.0219C62.9075 18.9315 61.928 19.6797 60.8112 20.2169C59.6944 20.7541 58.4658 21.0681 57.2067 21.1381C56.9469 21.1529 56.7037 21.2598 56.5287 21.4361C56.3536 21.6124 56.2605 21.8443 56.2692 22.0824C56.2926 22.3177 56.4115 22.5364 56.6025 22.6953C56.7934 22.8542 57.0424 22.9418 57.3004 22.9409C65.0567 22.9123 68.5286 17.1835 68.2473 11.4576C68.2976 9.9886 68.0292 8.52509 67.4576 7.15177C66.886 5.77846 66.0225 4.52263 64.9172 3.457C63.8119 2.39138 62.4867 1.53713 61.0183 0.943725C59.5499 0.350323 57.9676 0.0295563 56.3629 0C52.9129 0.193073 49.6225 1.39808 46.9785 3.43669C44.2661 5.41219 42.3603 8.16746 41.5692 11.2573C41.0851 13.3898 41.5036 15.6111 42.7398 17.4719C43.976 19.3327 45.9379 20.6943 48.2285 21.2812" fill="#020202"/>
<path d="M18.1097 61.2081L8.50659 59.8031C7.72534 59.66 6.47534 59.6314 5.38159 59.4311C4.91061 59.3916 4.45811 59.244 4.06596 59.0019C3.55215 58.4795 3.24411 57.8146 3.19096 57.1133C2.96534 55.7936 2.96534 54.4497 3.19096 53.13L4.31596 48.3169C4.50346 47.6015 4.65971 45.9991 4.94096 44.4539C5.04304 43.8053 5.20971 43.1748 5.44096 42.5624C5.44096 42.3621 5.78471 42.219 5.69096 42.1045C6.68186 41.7286 7.74667 41.5435 8.81909 41.5609C9.65867 41.5609 10.492 41.6181 11.3191 41.7325L9.91284 46.8833C9.62533 47.6559 9.41596 48.4571 9.28784 49.2641C9.23 49.8175 9.34945 50.3743 9.63158 50.8665C10.3372 51.6825 11.2361 52.3408 12.2604 52.7919C13.2847 53.2431 14.4075 53.4751 15.5441 53.4705C16.6811 53.6354 17.8447 53.5443 18.9347 53.2053C20.0247 52.8663 21.0082 52.2895 21.8003 51.5247C22.5222 50.4373 22.9628 49.2126 23.0816 47.9478C23.289 46.2533 23.289 44.543 23.0816 42.8485H25.6472L25.8347 40.8712H25.2722C22.1441 40.4706 19.391 40.3562 15.3253 39.6694C13.2628 39.2402 11.1774 38.9349 9.06909 38.7537C7.47724 38.6728 5.88569 38.9172 4.40971 39.4691C3.54837 39.9003 2.89987 40.617 2.59721 41.4722C2.01179 43.479 1.58367 45.5126 1.31284 47.5729C1.03159 48.5745 0.781585 49.6046 0.562835 50.6376C0.344085 51.6678 0.312835 52.0398 0.219085 52.7552C-0.0730284 54.3676 -0.0730284 56.0131 0.219085 57.6255C0.475335 58.8931 1.19096 60.0435 2.25034 60.8905C2.85659 61.3083 3.56596 61.5858 4.31284 61.6917C5.59721 61.892 7.19408 61.8348 8.16283 61.9206C10.7566 62.1496 12.2285 62.2068 13.9503 62.3499C15.0128 62.3499 16.1691 62.5502 17.7628 62.7791C17.9796 62.7919 18.1939 62.7303 18.3639 62.6064C18.5338 62.4826 18.6474 62.3052 18.6825 62.1089C18.7176 61.9126 18.6717 61.7113 18.5537 61.5443C18.4357 61.3773 18.254 61.2564 18.0441 61.2052L18.1097 61.2081ZM12.6972 47.3726L13.291 41.93L14.8222 42.1303C17.3285 42.4165 19.266 42.5309 21.0816 42.6454C21.0658 42.7498 21.0658 42.8557 21.0816 42.9601C21.1286 44.4985 20.9817 46.0367 20.6441 47.5443C20.4698 48.4227 20.0619 49.2482 19.4566 49.948C19.2691 50.1769 18.8628 50.2341 18.4535 50.32C17.6253 50.5031 16.766 50.5489 15.9222 50.4659C15.0615 50.422 14.2146 50.248 13.416 49.9509C13.041 49.8078 12.666 49.7219 12.5097 49.493C12.4898 48.7821 12.5527 48.0713 12.6972 47.3726Z" fill="#8963D6"/>
<path d="M74.0034 61.6088C72.0651 58.3262 69.9024 55.1588 67.5284 52.1257C67.0884 51.392 66.7423 50.6142 66.4972 49.8078C66.3305 49.2069 66.3305 48.5774 66.4972 47.9765C67.3201 46.1126 67.9763 44.2021 68.4659 42.2448C68.6572 39.5111 68.447 36.7662 67.8409 34.0837C67.312 31.4282 66.4955 28.8276 65.4034 26.3204C65.3653 26.2064 65.3017 26.101 65.2166 26.0107C65.1315 25.9205 65.0268 25.8475 64.9093 25.7964C64.7917 25.7452 64.6637 25.717 64.5336 25.7137C64.4035 25.7103 64.274 25.7318 64.1534 25.7767C63.9101 25.8655 63.7146 26.0381 63.6089 26.2575C63.5031 26.4769 63.4955 26.7255 63.5878 26.9499C64.619 29.3565 65.3847 31.8517 65.869 34.3985C66.3628 36.9109 66.5003 39.472 66.2753 42.0159C65.744 43.8244 65.0565 45.5814 64.2128 47.2868C63.8756 48.2777 63.8112 49.3295 64.0253 50.3487C64.3065 51.3464 64.7024 52.3021 65.2128 53.2159C67.4304 56.2033 69.4466 59.3119 71.2503 62.5245C71.5565 63.2112 71.6315 63.9724 71.469 64.6992C71.425 64.9549 71.3013 65.1934 71.1128 65.3863C70.9244 65.5792 70.6791 65.7182 70.4065 65.7866C69.3501 66.0317 68.2314 65.8987 67.2784 65.4146C65.565 64.5743 64.0378 63.4485 62.7753 62.0952C60.0971 59.6324 57.9716 56.7131 56.519 53.5021C55.1065 50.3151 54.4668 46.8852 54.644 43.4495V38.6937C54.6128 37.591 54.519 36.4941 54.3628 35.4029C54.2225 34.5742 54.0029 33.7584 53.7065 32.9649C53.5943 32.7278 53.4221 32.5186 53.2043 32.3545C52.9864 32.1903 52.729 32.0758 52.4534 32.0206C50.475 31.7231 48.4568 31.7231 46.4784 32.0206C42.2878 32.6215 37.6878 34.0523 33.9659 34.2526C33.2811 34.3068 32.5912 34.2387 31.9347 34.0523L32.1222 32.3353C32.4659 32.0778 32.8409 31.7917 33.3409 31.4769L37.2503 29.76L43.7565 27.2676C45.4753 26.6953 47.1659 26.1516 48.8878 25.6937C50.615 25.2249 52.3686 24.8418 54.1409 24.5463C54.3771 24.5045 54.5856 24.3786 54.7203 24.1961C54.8551 24.0137 54.9053 23.7896 54.8597 23.5733C54.8141 23.357 54.6765 23.1662 54.4773 23.0428C54.278 22.9193 54.0334 22.8735 53.7972 22.9152C51.9513 23.1746 50.1263 23.5276 48.3222 23.974C46.5409 24.4318 44.7909 24.9183 43.0378 25.4906L36.2503 27.8656L32.7784 29.4996C33.2784 24.3173 33.5909 19.1609 34.3097 14.0044C34.3236 13.8059 34.2564 13.6097 34.1211 13.454C33.9859 13.2984 33.7922 13.1944 33.5778 13.1623C33.3634 13.1301 33.1436 13.1722 32.9612 13.2802C32.7788 13.3883 32.6468 13.5546 32.5909 13.7469C31.3097 19.4756 30.1847 25.2044 29.4659 30.9332C26.9284 49.8078 28.6503 41.2433 27.0534 55.2505C25.5464 55.2792 24.0893 55.7507 22.8972 56.5954C21.4609 57.6291 20.4818 59.104 20.1409 60.7475C19.9307 61.5403 19.9254 62.3671 20.1256 63.1621C20.3257 63.9571 20.7257 64.6983 21.2937 65.3268C21.8618 65.9553 22.5822 66.4538 23.3977 66.7825C24.2131 67.1112 25.1011 67.2611 25.9909 67.2202C26.1043 67.2321 26.219 67.2228 26.3283 67.1928C26.4376 67.1629 26.5391 67.113 26.6268 67.0461C26.7144 66.9793 26.7863 66.8968 26.8381 66.8038C26.89 66.7108 26.9207 66.6091 26.9284 66.5048C26.9459 66.2968 26.8741 66.0906 26.7282 65.9303C26.5823 65.77 26.3738 65.6681 26.1472 65.6464C25.5829 65.6338 25.0298 65.4996 24.5327 65.2548C24.0356 65.01 23.6084 64.6614 23.2858 64.2373C22.9632 63.8132 22.7543 63.3254 22.6759 62.8136C22.5975 62.3017 22.6519 61.7802 22.8347 61.2911C23.1148 60.2995 23.7804 59.4354 24.7067 58.8612C25.633 58.2869 26.7564 58.0419 27.8659 58.1721C28.8061 58.3115 29.6628 58.7489 30.2866 59.4079C30.9103 60.0669 31.2614 60.9057 31.2784 61.7776C31.5284 63.5832 30.7159 65.4747 28.1503 65.5605C27.8927 65.5673 27.6472 65.662 27.4621 65.8262C27.2771 65.9904 27.1658 66.2121 27.1503 66.4476C27.1502 66.6856 27.2512 66.9143 27.4321 67.0852C27.6129 67.2561 27.8593 67.3559 28.119 67.3633C28.9357 67.42 29.7558 67.307 30.5181 67.0327C31.2804 66.7585 31.9652 66.3301 32.5214 65.7795C33.0776 65.229 33.4907 64.5705 33.73 63.8533C33.9693 63.136 34.0286 62.3786 33.9034 61.6374C33.8952 60.2734 33.4244 58.9454 32.5561 57.8371C31.6879 56.7288 30.465 55.8949 29.0565 55.4508C30.0774 50.2752 30.942 45.0815 31.6503 39.8697C31.6503 38.7537 31.9003 37.6349 32.0253 36.5189C32.817 36.7097 33.6211 36.786 34.4378 36.7478C38.1253 36.7478 42.819 35.3457 47.1347 34.8563C48.5568 34.6865 49.9969 34.6865 51.419 34.8563V35.9437C51.544 36.8976 51.6065 37.8524 51.6065 38.8081V43.3923C51.3746 47.1477 52.0147 50.9054 53.4847 54.4178C53.2987 54.3455 53.0941 54.3233 52.8949 54.3537C52.6956 54.3841 52.51 54.4659 52.3597 54.5894C51.4784 55.364 50.6961 56.2138 50.0128 57.1391C49.3185 58.1342 48.841 59.2429 48.6065 60.4041C48.429 61.5453 48.168 62.6743 47.8253 63.7835C47.669 64.2986 47.4815 64.7851 47.1065 64.9568C45.9472 65.5291 45.2284 65.4146 44.7597 64.8137C43.8202 63.0335 43.4003 61.0608 43.5409 59.0878C43.2284 56.1805 43.6097 53.2503 44.6659 50.4946C45.838 47.7766 47.7941 45.4009 50.3253 43.6212C50.4907 43.4893 50.596 43.3052 50.6202 43.1056C50.6445 42.9059 50.5859 42.7052 50.4562 42.5432C50.3264 42.3812 50.135 42.2698 49.9198 42.2309C49.7045 42.1921 49.4812 42.2287 49.294 42.3335C46.2624 44.103 43.8177 46.5988 42.2253 49.5503C40.8284 52.6205 40.1984 55.9377 40.3815 59.2595C40.3034 61.8062 40.9597 64.3244 42.2878 66.5621C42.6292 67.0062 43.0677 67.3806 43.5754 67.6614C44.0832 67.9422 44.6491 68.1233 45.2373 68.1932C45.8256 68.2632 46.4232 68.2204 46.9925 68.0677C47.5617 67.915 48.0901 67.6556 48.544 67.3061C49.3815 66.8053 49.994 66.0413 50.2628 65.1599C50.6711 63.7196 50.9315 62.2583 51.044 60.7761C51.1472 59.8632 51.444 58.979 51.919 58.1721C52.4482 57.3327 53.0743 56.5591 53.7972 55.8514C53.9126 55.7645 53.9902 55.6427 54.0159 55.508C55.616 58.6925 57.8067 61.599 60.4909 64.0983C62.0731 65.6838 63.9475 67.002 66.0284 67.9928C67.6634 68.7187 69.532 68.8714 71.2815 68.4221C71.9246 68.2553 72.5165 67.9539 73.0106 67.5417C73.5047 67.1295 73.8873 66.6178 74.1284 66.047C74.669 64.6007 74.6247 63.0248 74.0034 61.6059" fill="#020202"/>
</svg>
