<svg width="100" height="92" viewBox="0 0 100 92" fill="none" xmlns="http://www.w3.org/2000/svg">
<path fill-rule="evenodd" clip-rule="evenodd" d="M99.8083 66.4999C97.9666 62.9166 95.7666 59.5291 93.2416 56.3916C91.3464 54.1869 88.8903 52.5355 86.1333 51.6124C84.8452 51.3086 83.4946 51.4104 82.2666 51.9041C80.225 52.5291 77.775 53.7749 75.6125 54.5624C74.4041 55.0208 73.3666 55.5208 72.7041 55.0624C71.9104 54.4576 71.2208 53.7271 70.6625 52.8999C69.0041 50.6124 67.6291 47.7458 66.175 45.7916C64.4985 43.3773 62.3653 41.3148 59.8958 39.7208C59.0023 39.1223 57.9812 38.741 56.9141 38.6073C55.8471 38.4736 54.7635 38.5912 53.7499 38.9506C52.7364 39.31 51.8208 39.9014 51.0764 40.6776C50.332 41.4537 49.7793 42.3931 49.4625 43.4208C48.7804 45.6884 48.9432 48.1265 49.9208 50.2833C50.7347 52.1638 51.7597 53.9236 52.9958 55.5624C55.7763 58.7847 58.368 62.1527 60.7708 65.6666C61.4791 66.8291 62.2666 68.0333 62.8916 69.2416C63.225 69.8249 63.5027 70.4347 63.725 71.0708C61.0178 69.9 58.2402 68.8994 55.4083 68.0749C54.1371 67.8395 52.8252 67.9696 51.625 68.4499C50.8297 68.7625 50.1365 69.2893 49.6224 69.9718C49.1083 70.6543 48.7934 71.466 48.7125 72.3166C48.5875 75.2458 49.3583 78.1499 50.9166 80.6333C52.4287 82.8878 54.4516 84.7537 56.8208 86.0791C61.6833 88.8208 67.5041 88.9874 73.2416 91.6083C73.5183 91.7379 73.8349 91.7537 74.1231 91.6524C74.4114 91.5511 74.6484 91.3408 74.7833 91.0666C74.854 90.9275 74.896 90.7756 74.907 90.62C74.9179 90.4644 74.8976 90.3081 74.8471 90.1605C74.7965 90.0128 74.7169 89.8769 74.613 89.7605C74.509 89.6442 74.3827 89.5499 74.2416 89.4833C69.5 87.1166 64.5958 86.5374 60.3125 84.6249C57.5477 83.4213 55.214 81.4059 53.6208 78.8458C52.8593 77.4971 52.3642 76.0147 52.1625 74.4791C52.1625 73.3541 52.1625 72.1499 52.9541 71.7749C53.94 71.5073 54.9898 71.6111 55.9041 72.0666C59.0969 73.6773 62.4972 74.8383 66.0083 75.5166C66.2847 75.5216 66.5593 75.4715 66.8161 75.3693C67.0729 75.2671 67.3069 75.1148 67.5042 74.9213C67.7016 74.7278 67.8585 74.4969 67.9658 74.2422C68.0731 73.9874 68.1286 73.7139 68.1291 73.4374C68.1233 72.3782 68.0257 71.3215 67.8375 70.2791C67.5375 69.2166 67.1328 68.1866 66.6291 67.2041C65.9666 65.9124 65.1791 64.6666 64.4708 63.4624C61.9996 59.778 59.3202 56.2375 56.4458 52.8583C55.4215 51.5079 54.5561 50.0441 53.8666 48.4958C53.3901 47.4552 53.2168 46.3013 53.3666 45.1666C53.4311 44.7141 53.5954 44.2816 53.8477 43.9004C54.0999 43.5191 54.4337 43.1988 54.825 42.9624C56.1166 42.2124 57.4458 42.9624 58.6916 43.7541C60.2541 44.9499 61.65 46.3499 62.85 47.9124C64.3458 49.7833 65.8 52.6499 67.5041 54.8541C68.3458 55.9916 69.3708 56.9749 70.5416 57.7666C71.1611 58.2049 71.867 58.506 72.6121 58.6497C73.3572 58.7934 74.1244 58.7764 74.8625 58.5999C77.1902 57.8138 79.45 56.8694 81.6416 55.7666C82.6688 55.1074 83.8716 54.7747 85.0916 54.8124C87.3416 55.4916 89.3708 56.7708 90.9541 58.5124C93.425 61.4291 95.5833 64.5916 97.4 67.9499C97.486 68.0987 97.6008 68.2288 97.7377 68.3327C97.8747 68.4365 98.0309 68.512 98.1974 68.5547C98.3639 68.5974 98.5372 68.6064 98.7072 68.5813C98.8772 68.5561 99.0405 68.4973 99.1875 68.4083C99.364 68.3351 99.5227 68.2246 99.6526 68.0844C99.7824 67.9441 99.8804 67.7774 99.9398 67.5958C99.9991 67.4141 100.019 67.2217 99.9965 67.0318C99.9746 66.842 99.9118 66.6591 99.8125 66.4958" fill="#020202"/>
<path fill-rule="evenodd" clip-rule="evenodd" d="M41.6041 49.0749H32.875C30.5416 49.0749 28.2583 49.3249 24.1 49.6583C21.1128 50.0275 18.0876 49.9573 15.1208 49.4499C13.2964 49.0682 11.5955 48.2392 10.1708 47.0374C8.01286 44.8724 6.34947 42.2656 5.29502 39.3965C4.24057 36.5273 3.82007 33.4638 4.06246 30.4166C3.93839 24.1561 5.58025 17.9872 8.79996 12.6166C11.7472 9.3672 15.7001 7.20147 20.025 6.46659C26.9901 5.08183 34.098 4.55014 41.1916 4.88326C46.8 4.88326 52.7041 4.38326 58.5666 4.42492C62.3166 4.41659 66.0666 4.76659 69.75 5.46659C72.2427 6.04469 74.5827 7.15004 76.6125 8.70826C78.5333 10.2041 79.9791 12.2249 80.7666 14.5291C81.7101 20.6178 81.7101 26.8154 80.7666 32.9041C80.4368 36.9163 78.8356 40.7188 76.1958 43.7583C75.9598 44.0126 75.8286 44.3467 75.8286 44.6937C75.8286 45.0406 75.9598 45.3748 76.1958 45.6291C76.4452 45.8746 76.7812 46.0123 77.1312 46.0123C77.4812 46.0123 77.8172 45.8746 78.0666 45.6291C81.1855 42.2322 83.1627 37.9442 83.7208 33.3666C84.9291 26.7791 85.0833 20.0416 84.1791 13.4083C83.2886 10.3763 81.4879 7.69122 79.0208 5.71659C76.5718 3.80851 73.7344 2.46023 70.7083 1.76659C66.743 0.918164 62.7045 0.457661 58.65 0.391592H41.1916C33.7484 0.025552 26.2885 0.585393 18.9833 2.05826C13.6438 3.03973 8.8186 5.86525 5.34996 10.0416C1.62226 16.1669 -0.227658 23.2508 0.0291225 30.4166C-0.142568 34.0233 0.479685 37.6238 1.85194 40.9637C3.22419 44.3036 5.31298 47.3015 7.97079 49.7458C9.82079 51.2458 12.025 52.2458 14.3708 52.6541C17.6519 53.1343 20.9855 53.1343 24.2666 52.6541C28.425 52.2374 30.5875 51.9874 32.875 51.8624C35.1625 51.7374 37.4458 51.5708 41.6041 51.3666C41.7554 51.3667 41.9052 51.3363 42.0445 51.2771C42.1838 51.218 42.3097 51.1314 42.4147 51.0225C42.5198 50.9136 42.6017 50.7846 42.6558 50.6432C42.7098 50.5019 42.7347 50.3511 42.7291 50.1999C42.728 49.9023 42.609 49.6172 42.3982 49.4071C42.1873 49.197 41.9018 49.0791 41.6041 49.0791" fill="#8963D6"/>
<path fill-rule="evenodd" clip-rule="evenodd" d="M23.3917 15.9833C22.8035 15.0445 21.9436 14.307 20.9262 13.8686C19.9088 13.4303 18.7821 13.3118 17.6958 13.5291C16.7431 13.5812 15.8234 13.896 15.0387 14.4388C14.254 14.9815 13.6349 15.731 13.25 16.6041C12.3304 19.782 12.3304 23.1554 13.25 26.3333L13.9583 29.1208L15.0792 32.4874L16.1625 35.1499C16.0786 35.4262 16.0812 35.7215 16.1698 35.9963C16.2584 36.2711 16.4289 36.5122 16.6583 36.6874C17.7393 37.3639 18.961 37.7833 20.2295 37.9133C21.4979 38.0433 22.7793 37.8805 23.975 37.4374C26.3209 36.6856 28.381 35.2346 29.8792 33.2791C31.0875 31.6749 31.7125 29.7124 31.6708 27.7041C31.6059 26.1773 31.0342 24.7156 30.0458 23.5499C29.2504 22.7715 28.3071 22.1603 27.2716 21.7524C26.2361 21.3445 25.1293 21.1481 24.0167 21.1749C24.4614 19.4269 24.2386 17.5758 23.3917 15.9833ZM15.9917 23.9583C15.8461 22.6609 15.8461 21.3514 15.9917 20.0541C16.2 18.7624 16.6167 17.5541 18.0333 17.4708C19.45 17.3874 19.6917 17.8458 19.8167 18.5541C19.9792 19.7541 19.6833 20.9708 18.9833 21.9666C17.8645 22.4266 16.8477 23.1035 15.9917 23.9583ZM27.175 26.3333C27.4618 26.6305 27.6867 26.9817 27.8369 27.3665C27.9871 27.7513 28.0595 28.162 28.05 28.5749C27.9875 29.5791 27.675 30.5499 27.1333 31.4041C26.1083 32.8704 24.6585 33.9872 22.9792 34.6041C21.5208 35.1874 19.9 35.1874 18.4458 34.6041L17.4875 31.7333L16.9875 29.4916C17.3764 29.2916 17.7375 29.0555 18.0708 28.7833L19.2792 27.9083C19.9736 27.4083 20.6111 26.8402 21.1917 26.2041L21.9417 25.3291H22.1917C23.0419 25.0861 23.9378 25.0501 24.8048 25.2241C25.6717 25.3981 26.4844 25.7769 27.175 26.3291M47.9625 16.1499C47.9235 15.9823 47.8514 15.8242 47.7504 15.6849C47.6495 15.5455 47.5217 15.4277 47.3746 15.3385C47.2275 15.2492 47.064 15.1902 46.8938 15.165C46.7236 15.1398 46.55 15.1488 46.3833 15.1916C46.2153 15.2306 46.0568 15.3028 45.9171 15.404C45.7774 15.5053 45.6594 15.6335 45.5701 15.7811C45.4808 15.9286 45.4219 16.0926 45.397 16.2633C45.3721 16.434 45.3816 16.608 45.425 16.7749C45.8208 19.0499 45.9333 21.3666 45.7583 23.6749C45.6443 25.731 45.0323 27.7286 43.975 29.4958C43.7253 29.855 43.4038 30.1585 43.0309 30.3873C42.658 30.616 42.2417 30.7651 41.8083 30.8249C41.4723 30.8911 41.1245 30.864 40.8028 30.7464C40.481 30.6289 40.1976 30.4255 39.9833 30.1583C39.2441 29.1732 38.6932 28.0601 38.3583 26.8749C37.9633 25.5149 37.6845 24.1238 37.525 22.7166C37.3998 21.5421 37.3998 20.3577 37.525 19.1833C37.6583 17.9527 37.8528 16.7333 38.1083 15.5249C38.1464 15.2424 38.0796 14.9557 37.9207 14.7191C37.7618 14.4824 37.5218 14.3121 37.2459 14.2403C36.97 14.1685 36.6774 14.2002 36.4233 14.3294C36.1692 14.4586 35.9712 14.6764 35.8667 14.9416C35.3556 16.4416 34.925 17.9666 34.575 19.5166C34.35 20.6138 34.225 21.7222 34.2 22.8416C34.0787 24.8235 34.2471 26.8125 34.7 28.7458C35.025 30.2249 35.6167 31.6333 36.45 32.9041C37.1209 33.8482 38.0507 34.578 39.1272 35.0054C40.2037 35.4327 41.3809 35.5394 42.5167 35.3124C43.5524 35.1273 44.5368 34.7239 45.4046 34.1291C46.2724 33.5342 47.0037 32.7616 47.55 31.8624C48.5626 29.8347 49.1025 27.6038 49.1292 25.3374C49.225 22.2327 48.8313 19.1322 47.9625 16.1499ZM59.6042 27.4999C59.6042 30.0749 60.1458 33.3624 60.2708 34.1499C60.2251 34.3907 60.2471 34.6395 60.3344 34.8686C60.4216 35.0976 60.5706 35.298 60.765 35.4474C60.9593 35.5968 61.1912 35.6894 61.435 35.7149C61.6788 35.7403 61.9249 35.6976 62.1458 35.5916C62.4115 35.4669 62.6286 35.258 62.7634 34.9973C62.8983 34.7367 62.9433 34.4388 62.8917 34.1499L63.8917 25.8333L66.55 22.4666C67.55 20.8041 68.4625 19.2249 69.5833 17.6874C70.0167 17.0319 70.4889 16.4069 71 15.8124C71.2199 15.5969 71.3452 15.3029 71.3483 14.995C71.3515 14.6872 71.2322 14.3907 71.0167 14.1708C70.8012 13.9509 70.5072 13.8256 70.1993 13.8224C69.8914 13.8193 69.5949 13.9386 69.375 14.1541C68.4167 14.8624 67.5875 15.6083 66.7583 16.3541C65.925 17.1041 64.3833 18.6458 63.1417 19.8499C62.6833 20.3777 62.1833 20.8624 61.6417 21.3041C61.35 20.8458 61.1 20.3458 60.7667 19.8874C60.4311 19.412 60.0709 18.9544 59.6875 18.5166C59.3288 18.0754 58.9404 17.6591 58.525 17.2708C57.525 16.3124 56.4458 15.6041 55.45 14.5666C55.2774 14.3405 55.0282 14.1853 54.7492 14.1301C54.4701 14.0749 54.1806 14.1236 53.9349 14.2669C53.6892 14.4102 53.5043 14.6383 53.4151 14.9083C53.3258 15.1784 53.3382 15.4717 53.45 15.7333C53.9208 17.4083 54.6333 19.0041 55.575 20.4708C56.1778 21.2652 56.857 21.9874 57.6125 22.6374C58.232 23.2069 58.8958 23.718 59.6042 24.1708C59.4733 25.2766 59.4733 26.3941 59.6042 27.4999Z" fill="#020202"/>
</svg>
