<svg width="99" height="72" viewBox="0 0 99 72" fill="none" xmlns="http://www.w3.org/2000/svg">
<path d="M71.9623 34.9792L94.929 39.1542L88.6081 22.7292L71.9623 34.9792Z" fill="#BBD8FF"/>
<path d="M71.9623 51.3125V14.0083L63.7957 12.5208V51.3125H2.54565V59.4791H18.879V65.6041L25.004 69.6875L31.129 65.6041V59.4791H71.9623V65.6041L78.0873 69.6875L84.2123 65.6041V59.4791H96.4623V51.3125H71.9623Z" fill="#BBD8FF"/>
<path d="M51.5457 10.4792V43.1458M39.2957 10.4792V43.1458M27.0457 10.4792V43.1458M14.7957 10.4792V43.1458M2.54565 51.3125H63.7957M2.54565 51.3125V2.3125H63.7957V51.3125M2.54565 51.3125V59.4792H10.7123M63.7957 51.3125H96.4623V59.4792H92.379M39.2957 59.4792H63.7957" stroke="#27242B" stroke-width="4" stroke-linecap="round" stroke-linejoin="round"/>
<path d="M18.8789 65.6041L25.0039 69.6875L31.1289 65.6041V59.4791L25.0039 55.3958L18.8789 59.4791V65.6041ZM71.9622 65.6041L78.0872 69.6875L84.2122 65.6041V59.4791L78.0872 55.3958L71.9622 59.4791V65.6041Z" stroke="#8963D6" stroke-width="4" stroke-linejoin="round"/>
<path d="M88.6123 22.7292H71.9623V34.9792L94.929 39.1542" stroke="#8963D6" stroke-width="4" stroke-linecap="round" stroke-linejoin="round"/>
<path d="M96.4623 51.3125V43.1458L86.254 16.6041L63.7957 12.5208" stroke="#8963D6" stroke-width="4" stroke-linecap="round" stroke-linejoin="round"/>
</svg>
