<svg width="100" height="98" viewBox="0 0 100 98" fill="none" xmlns="http://www.w3.org/2000/svg">
<path fill-rule="evenodd" clip-rule="evenodd" d="M68.2751 15.6666C71.1139 14.9777 73.8917 14.1027 76.6084 13.0416C76.8078 12.8433 76.9393 12.5869 76.9842 12.3093C77.0291 12.0316 76.9851 11.7469 76.8584 11.4958C76.4417 10.2875 75.2334 10.3291 67.8167 11.8291C67.2389 11.7695 66.6549 11.8314 66.1024 12.0108C65.5499 12.1902 65.041 12.4831 64.6084 12.8708C63.6731 15.1169 62.9586 17.4488 62.4751 19.8333C59.2223 19.5833 55.9709 19.5833 52.7209 19.8333C51.5959 19.8333 38.7959 19.2916 36.0417 21.2916C34.2917 22.5833 34.8334 24.8333 35.1251 26.7125C35.6167 30.4625 36.3959 34.1708 37.4584 37.8C36.6315 38.4486 35.9842 39.2979 35.5777 40.2671C35.1713 41.2362 35.0194 42.2932 35.1362 43.3376C35.2531 44.382 35.635 45.3793 36.2456 46.2346C36.8562 47.09 37.6753 47.7751 38.6251 48.225C39.8272 48.7015 41.1458 48.8014 42.406 48.5115C43.6662 48.2215 44.8085 47.5555 45.6816 46.6015C46.5546 45.6476 47.1171 44.4508 47.2946 43.1699C47.472 41.889 47.2559 40.5845 46.6751 39.4291H53.6751C50.8417 44.9708 57.8459 49.3083 62.6417 46.6375C63.5364 46.1211 64.2767 45.3749 64.7859 44.4761C65.2951 43.5774 65.5546 42.5588 65.5376 41.5259C65.5206 40.4931 65.2277 39.4836 64.6892 38.6021C64.1507 37.7205 63.3862 36.9991 62.4751 36.5125C65.2667 24.6708 65.8917 25.8791 68.2667 15.6666M43.5417 42.1375C43.0001 44.5541 39.3751 44.6791 39.3751 42.1375C39.7084 38.3041 44.3334 38.4708 43.5417 42.1375ZM41.6251 35.4708C41.6251 35.0541 41.2084 34.5083 41.1667 34.3L39.7084 26.2958C39.7084 25.1291 37.9167 25.7541 45.3751 24.3791C60.9709 22.9208 55.0917 22.9625 61.5542 22.6708C60.5105 26.8865 59.9514 31.2075 59.8876 35.55C58.5538 35.4567 57.2284 35.8244 56.1334 36.5916C52.8001 36.1333 42.3751 35.5083 41.6251 35.4666M60.8876 42.6333C59.9948 42.7801 59.0785 42.6492 58.2626 42.2583C55.1334 40.8833 62.4292 35.0083 62.4292 41.0916C62.3497 41.4989 62.1402 41.8694 61.8322 42.1474C61.5241 42.4254 61.1341 42.5959 60.7209 42.6333H60.8876Z" fill="#020202"/>
<path fill-rule="evenodd" clip-rule="evenodd" d="M28.8333 59.5208C28.566 59.3392 28.2389 59.2681 27.9204 59.3225C27.6019 59.3769 27.3168 59.5525 27.125 59.8125C24.5416 63.1458 22.2375 66.6875 20.25 70.4041C19.8327 71.0417 19.6465 71.8029 19.7224 72.5611C19.7982 73.3192 20.1314 74.0285 20.6666 74.5708C24.8333 77.8208 69.15 78.2833 81.3208 75.5291C85.4916 74.6125 79.8625 66.6125 76.8625 61.15C75.7791 59.4416 73.3625 59.025 73.7791 61.15L75.6125 65.025L60.8958 64.2333C60.5625 62.8166 60.3541 61.8583 60.2291 61.15C60.1357 60.6996 59.89 60.2952 59.5333 60.0049C59.1766 59.7146 58.7307 59.5561 58.2708 59.5561C57.8109 59.5561 57.365 59.7146 57.0083 60.0049C56.6516 60.2952 56.4058 60.6996 56.3125 61.15C56.2557 62.1214 56.2557 63.0952 56.3125 64.0666C52.6416 64.0666 48.9708 63.8166 43.8 64.0666C44.2583 62.775 44.5916 61.9416 44.8416 61.275C45.175 59.1916 41.675 58.8166 40.425 61.275C40.1333 61.8166 39.675 62.65 38.8416 64.275C33.4625 64.525 29.0833 64.8166 26.9583 64.9833C27.8333 62.525 30.4583 60.65 28.8333 59.525M75.5291 67.6125C75.7426 67.606 75.9516 67.55 76.1397 67.4487C76.3277 67.3475 76.4896 67.2038 76.6125 67.0291C77.4875 68.9041 78.2791 70.6958 78.7791 72.075C74.6125 72.45 66.2708 72.4916 61.8958 72.4916C61.8958 71.4916 61.4791 70.7833 61.3958 68.325C66.9791 68.0333 72.025 67.7 75.5291 67.6166M41.7583 68.1166C47.675 68.4083 51.4291 68.45 57.0583 68.325C58.225 72.4958 57.9333 71.6208 58.225 72.4958H38.8416C39.3833 71.7041 40.5083 70.2041 41.6333 68.1208L41.7583 68.1166ZM37.0083 67.8666C36.6333 68.6583 35.675 71.0791 35.2166 72.4125C33.3375 72.4125 25.75 72.2041 23.875 71.9958C24.9083 70.4958 25.6416 68.8125 26.0416 67.0375C26.375 67.2041 36.6708 67.8291 37.0041 67.8708" fill="#8963D6"/>
<path fill-rule="evenodd" clip-rule="evenodd" d="M100 76.5333C99.6667 73.45 87.95 57.8958 85.6167 56.3541C88.451 46.6371 90.4307 36.6909 91.5333 26.6291C92.1167 20.5041 93.8708 12.7458 91.95 6.44998C89.4917 -1.00835 58.85 0.44998 49.9708 0.491646C39.4927 0.268692 29.0251 1.28972 18.7875 3.53331C14.6208 4.57498 8.74166 5.53331 7.78333 9.90831C5.61666 19.0416 13.95 51.725 16.6167 57.0625C17.3667 58.5625 18.9958 56.5625 16.6167 59.0625C12.45 63.2291 3.44583 72.6958 1.19583 75.7416C0.51218 76.796 0.107642 78.0068 0.0201837 79.2604C-0.0672749 80.514 0.165213 81.7692 0.695828 82.9083C0.120828 84.6583 0.0041613 86.525 0.362495 88.3291C0.174995 90.2333 0.595828 92.1458 1.57083 93.7916C6.27916 98.8333 86.9083 97.9583 93.7458 96.5833C98.1625 95.5833 97.9125 92.4166 98.5792 88.25C98.6267 87.8912 98.5309 87.5281 98.3125 87.2395C98.0941 86.9509 97.7707 86.76 97.4125 86.7083C95.0375 86.375 96.1625 90.25 94.9125 92.375C93.6625 94.5 94.1625 93.5833 57.0167 93.0833C41.7167 92.875 5.11249 93.0833 3.65416 91.625C3.10174 89.3987 2.7806 87.1214 2.69583 84.8291C12.6167 88.9958 79.8625 86.6208 90.6208 86.2041C90.9893 86.1933 91.339 86.0393 91.5957 85.7748C91.8525 85.5103 91.996 85.1561 91.9958 84.7875C91.9958 82.6208 93.2458 83.7458 28.875 82.4958C18.3708 82.4958 9.53333 82.0791 5.40416 81.4541C4.19583 81.4541 3.82083 81.9541 3.73749 79.6208C3.67512 79.0112 3.80633 78.3975 4.11249 77.8666C7.44583 72.6583 20.1625 58.9791 20.3292 58.6458C20.4958 58.3125 19.7875 56.8958 18.7875 57.1041C18.8905 56.9346 18.945 56.74 18.945 56.5416C18.945 56.3433 18.8905 56.1487 18.7875 55.9791C16.1625 50.4375 9.07499 18.7916 11.075 10.7041C11.2833 9.78748 12.2417 9.32915 13.2417 8.91248C19.1771 7.13159 25.285 5.98627 31.4625 5.49581C40.6333 4.69998 65.8125 4.94998 67.9833 4.99165C91.3292 5.69998 85.825 8.86665 87.4917 8.03331C88.0333 10.2291 88.2292 12.4916 88.075 14.7458C87.074 27.8126 85.1806 40.7957 82.4083 53.6041C81.6167 53.6041 79.8667 54.1875 78.2417 54.2708C64.1458 54.9375 27.375 54.9375 22.9583 55.0625C22.5205 55.0455 22.0896 55.1758 21.7345 55.4326C21.3795 55.6895 21.1209 56.058 21 56.4791C21 58.2708 23.125 57.8125 25.4167 57.8125C89.2042 58.2708 83.5333 57.8125 83.7833 58.3541C84.0333 58.8958 84.0333 58.7291 84.2833 59.1458C87.713 65.6688 91.792 71.8291 96.4583 77.5333L97.5833 82.3666C97.5833 82.5253 97.6146 82.6824 97.6753 82.8291C97.736 82.9757 97.825 83.1089 97.9372 83.2211C98.0494 83.3333 98.1826 83.4223 98.3292 83.483C98.4759 83.5437 98.633 83.575 98.7917 83.575C98.9503 83.575 99.1075 83.5437 99.2541 83.483C99.4007 83.4223 99.5339 83.3333 99.6461 83.2211C99.7583 83.1089 99.8473 82.9757 99.908 82.8291C99.9687 82.6824 100 82.5253 100 82.3666V76.5333Z" fill="#020202"/>
</svg>
