<svg width="100" height="70" viewBox="0 0 100 70" fill="none" xmlns="http://www.w3.org/2000/svg">
<path fill-rule="evenodd" clip-rule="evenodd" d="M9.61258 35.6708C13.7793 38.8375 16.7376 35.8791 13.5293 32.3791L13.1959 32.0458C12.5089 31.3956 11.7855 30.7849 11.0293 30.2166C10.2376 29.6333 9.40425 29.1333 8.57092 28.6333C6.55616 27.5008 4.43657 26.5659 2.24175 25.8416C1.87155 25.6593 1.44408 25.6315 1.05338 25.7643C0.662683 25.8972 0.340754 26.1798 0.158417 26.55C-0.023919 26.9202 -0.0517267 27.3476 0.0811116 27.7383C0.21395 28.129 0.496553 28.451 0.866751 28.6333C2.65842 29.8416 4.15842 31.3833 5.86675 32.8C6.96397 33.7722 8.11675 34.675 9.32508 35.5083L9.61258 35.6708Z" fill="#8963D6"/>
<path fill-rule="evenodd" clip-rule="evenodd" d="M49.9751 58.375C49.837 57.9882 49.5509 57.6721 49.1797 57.4963C48.8085 57.3205 48.3827 57.2993 47.996 57.4375C47.6092 57.5756 47.2931 57.8617 47.1173 58.2329C46.9415 58.6041 46.9203 59.0299 47.0585 59.4166C47.2891 60.6316 47.0282 61.8884 46.3329 62.9111C45.6376 63.9337 44.5648 64.6386 43.3501 64.8708C42.6153 64.8907 41.8865 64.7335 41.2251 64.4125C40.5134 64.1388 39.8622 63.7283 39.3085 63.2041C38.9421 62.8182 38.5945 62.415 38.2668 61.9958C38.0784 61.7003 37.9378 61.3768 37.8501 61.0375C37.6809 60.2448 37.7991 59.4178 38.1835 58.7041C38.4751 58.4125 38.6835 58.1208 38.9335 57.8291C39.2815 57.3463 39.7202 56.9359 40.2251 56.6208C41.1414 56.0203 42.213 55.7005 43.3085 55.7005C44.4039 55.7005 45.4756 56.0203 46.3918 56.6208C46.6575 56.8402 46.9959 56.9518 47.34 56.9336C47.6842 56.9153 48.0089 56.7685 48.2499 56.5223C48.4909 56.276 48.6307 55.9482 48.6415 55.6038C48.6524 55.2594 48.5335 54.9234 48.3085 54.6625C47.2845 53.6132 46.0017 52.8526 44.5898 52.4575C43.1778 52.0625 41.6867 52.0469 40.2668 52.4125C40.2575 51.7646 40.1594 51.1211 39.9751 50.5C39.8682 50.2105 39.6791 49.9586 39.431 49.7752C39.1828 49.5918 38.8865 49.4849 38.5784 49.4676C38.2703 49.4504 37.9639 49.5235 37.6969 49.678C37.4298 49.8326 37.2137 50.0618 37.0751 50.3375C36.9857 50.5243 36.9348 50.7272 36.9255 50.934C36.9162 51.1409 36.9486 51.3476 37.021 51.5416C37.2501 52.2457 37.2501 53.0043 37.021 53.7083C35.7377 54.4442 34.6735 55.5084 33.9376 56.7916C33.7714 56.8084 33.6039 56.8084 33.4376 56.7916C32.7152 56.8222 31.9972 56.6643 31.3543 56.3333C30.5529 56.1458 29.8003 55.7908 29.146 55.2916C28.7754 54.9212 28.4406 54.5166 28.146 54.0833C27.9263 53.8004 27.77 53.4736 27.6876 53.125C27.5532 52.2467 27.7031 51.3484 28.1154 50.5613C28.5277 49.7743 29.1807 49.1396 29.9793 48.75C30.8916 48.1391 31.9647 47.813 33.0626 47.813C34.1605 47.813 35.2337 48.1391 36.146 48.75C36.4154 48.9792 36.7623 49.0968 37.1156 49.0788C37.4689 49.0608 37.8019 48.9086 38.0467 48.6531C38.2915 48.3977 38.4295 48.0585 38.4324 47.7047C38.4354 47.351 38.3031 47.0094 38.0626 46.75C37.2178 45.8539 36.1745 45.1685 35.0167 44.7488C33.8589 44.3291 32.6188 44.1868 31.396 44.3333C31.5446 43.1701 31.3717 41.9885 30.896 40.9166C30.7454 40.5466 30.4579 40.249 30.0932 40.0858C29.7286 39.9226 29.3151 39.9066 28.9389 40.0409C28.5627 40.1753 28.2528 40.4497 28.0741 40.8069C27.8953 41.1642 27.8613 41.5766 27.9793 41.9583C28.123 42.5701 28.1264 43.2065 27.9893 43.8199C27.8522 44.4332 27.5781 45.0076 27.1876 45.5C26.3789 45.9333 25.6366 46.4806 24.9835 47.125C24.7435 47.2462 24.4923 47.3438 24.2335 47.4166C23.5141 47.4155 22.8035 47.2592 22.1501 46.9583C21.4384 46.6847 20.7872 46.2742 20.2335 45.75C19.8533 45.3769 19.5048 44.9727 19.1918 44.5416C18.9764 44.2456 18.8336 43.9031 18.7751 43.5416C18.6035 42.6508 18.7465 41.728 19.1797 40.9308C19.6128 40.1336 20.3093 39.5115 21.1501 39.1708C22.0664 38.5703 23.138 38.2505 24.2335 38.2505C25.3289 38.2505 26.4006 38.5703 27.3168 39.1708C27.586 39.3287 27.9009 39.3904 28.2097 39.3456C28.5186 39.3009 28.803 39.1524 29.0163 38.9245C29.2296 38.6967 29.359 38.4031 29.3834 38.092C29.4077 37.7808 29.3254 37.4707 29.1501 37.2125C27.8341 36.0392 26.2223 35.2482 24.489 34.925C22.7558 34.6019 20.9672 34.7589 19.3168 35.3791C17.5784 35.9417 16.0998 37.1098 15.1501 38.6708C13.9519 40.3497 13.419 42.4133 13.6543 44.4625C13.8001 45.3375 14.096 46.1833 14.5293 46.9625C15.1237 47.8875 15.8182 48.7347 16.6126 49.5041C17.821 50.5458 19.2668 51.2875 20.821 51.6666C21.4571 51.8611 22.1098 51.9722 22.7793 52C22.6956 52.678 22.6956 53.3637 22.7793 54.0416C22.9291 54.911 23.24 55.7448 23.696 56.5C24.2598 57.4611 24.9529 58.3222 25.7751 59.0833C27.7821 60.7859 30.3534 61.6762 32.9835 61.5791C33.0059 61.6891 33.0059 61.8025 32.9835 61.9125C33.121 62.7958 33.4335 63.6458 33.9001 64.4125C34.4626 65.3541 35.1626 66.2125 35.9793 66.9541C37.171 68 38.6001 68.7458 40.146 69.1208C41.6701 69.5532 43.2844 69.5532 44.8085 69.1208C45.9247 68.7762 46.9606 68.2115 47.8551 67.4601C48.7497 66.7087 49.4847 65.7858 50.0168 64.7458C50.4758 63.7446 50.7099 62.655 50.7027 61.5537C50.6955 60.4523 50.4472 59.3659 49.9751 58.3708" fill="#020202"/>
<path fill-rule="evenodd" clip-rule="evenodd" d="M44.9752 11.475C45.5446 11.5861 46.1002 11.7388 46.6418 11.9333C49.5168 13.1 51.1002 10.0583 49.0168 8.72495C47.978 8.10793 46.8552 7.64478 45.6835 7.34995C43.0813 6.79019 40.3992 6.7055 37.7668 7.09995C35.4437 7.25538 33.1103 7.14353 30.8127 6.76662L22.2752 3.55829C20.3002 2.73051 18.2585 2.10551 16.1502 1.68329C15.9726 1.69867 15.8001 1.75064 15.6436 1.83594C15.4871 1.92123 15.3499 2.038 15.2407 2.1789C15.1315 2.31979 15.0526 2.48177 15.0091 2.65462C14.9656 2.82748 14.9583 3.00748 14.9877 3.18329C15.0157 3.49432 15.152 3.78565 15.3728 4.00647C15.5937 4.2273 15.885 4.3636 16.196 4.39162C16.196 4.39162 16.696 4.64162 17.1543 4.89162C19.7377 6.22496 25.1918 9.64162 28.9002 11.5166C30.421 12.3875 32.1085 12.925 33.8585 13.1L38.5627 12.1416C40.6574 11.6065 42.8194 11.3819 44.9793 11.475" fill="#8963D6"/>
<path fill-rule="evenodd" clip-rule="evenodd" d="M99.6208 1.14581C99.4046 0.78751 99.0553 0.529396 98.6493 0.427894C98.2433 0.326393 97.8136 0.38976 97.4542 0.604144L90.0375 4.77081C88.7116 5.53579 87.3183 6.17737 85.875 6.68748C85.0273 6.95917 84.1399 7.08595 83.25 7.06248C81.8555 7.03865 80.4639 6.92732 79.0833 6.72915C77.859 6.51493 76.6496 6.22267 75.4625 5.85415C73.7125 5.27081 72.0458 4.52081 70.2958 4.02081C68.9464 3.61419 67.5425 3.41745 66.1333 3.43748C65.0028 3.48748 63.9056 3.7097 62.8417 4.10414C61.3708 4.59164 59.9667 5.27914 58.675 6.14581C57.6333 6.77081 48.0583 15.6375 47.1417 16.5958C45.5322 18.1123 44.1311 19.8357 42.975 21.7208C42.1756 23.1372 41.719 24.7212 41.6417 26.3458C41.5488 27.2953 41.6732 28.2535 42.0052 29.1479C42.3373 30.0423 42.8684 30.8494 43.5583 31.5083C44.5383 32.2832 45.68 32.8278 46.8989 33.1019C48.1177 33.3759 49.3827 33.3724 50.6 33.0916C52.75 32.6583 54.7667 31.7166 56.4708 30.3416C58.1736 28.9861 59.757 27.5 61.2208 25.8833C63.3413 26.7752 65.5903 27.3238 67.8833 27.5083C68.9667 27.6333 70.05 27.6333 71.1333 27.5083C72.2056 27.3528 73.2472 27.075 74.2583 26.675C76.5553 25.7068 78.6361 24.2903 80.3792 22.5083C80.5316 22.4082 80.6619 22.278 80.762 22.1256C80.862 21.9731 80.9298 21.8018 80.961 21.6222C80.9923 21.4425 80.9863 21.2584 80.9436 21.0812C80.9008 20.9039 80.8222 20.7373 80.7125 20.5916C80.6086 20.4438 80.4766 20.318 80.324 20.2212C80.1714 20.1245 80.0013 20.0587 79.8233 20.0278C79.6453 19.9968 79.4629 20.0012 79.2866 20.0408C79.1103 20.0804 78.9435 20.1543 78.7958 20.2583C76.8807 21.075 74.8614 21.6219 72.7958 21.8833L69.1708 22.5083C68.3375 22.5083 67.5875 22.8 66.7583 22.8416C65.4548 22.9441 64.1452 22.9441 62.8417 22.8416C62.8845 22.6919 62.8845 22.5331 62.8417 22.3833C62.7173 22.2548 62.5684 22.1526 62.4038 22.0828C62.2392 22.013 62.0622 21.977 61.8833 21.977C61.7045 21.977 61.5275 22.013 61.3629 22.0828C61.1982 22.1526 61.0493 22.2548 60.925 22.3833C58.9528 24.3416 56.8431 26.1333 54.5958 27.7583C53.2536 28.686 51.7122 29.2855 50.0958 29.5083C48.9777 29.6875 47.8319 29.4818 46.8458 28.925C46.4548 28.7104 46.143 28.376 45.9563 27.971C45.7695 27.5659 45.7177 27.1117 45.8083 26.675C45.9831 25.7213 46.3519 24.8137 46.8917 24.0083C47.9333 22.5528 49.1278 21.2333 50.475 20.05C52.5167 18.0125 54.6417 15.8875 56.8042 13.85C58.165 12.5914 59.6284 11.4486 61.1792 10.4333C61.9847 9.89165 62.832 9.41942 63.7208 9.01664C65.3609 8.29727 67.1987 8.16484 68.925 8.64164C70.6333 9.01664 72.2583 9.64164 73.9667 10.1416C75.4583 10.5166 76.9708 10.7805 78.5042 10.9333C80.0042 11.0166 81.5042 11.0166 83.0042 10.9333C84.3375 10.8916 85.6583 10.6416 86.9167 10.1833C88.5706 9.49159 90.1601 8.655 91.6667 7.68331L98.8708 3.14165C99.2299 2.96964 99.5085 2.66538 99.6483 2.29258C99.7881 1.91978 99.7783 1.51151 99.6208 1.14581Z" fill="#020202"/>
<path fill-rule="evenodd" clip-rule="evenodd" d="M77.3335 43.3333C77.0775 42.6046 76.7712 41.8946 76.4168 41.2083C75.2383 39.1886 73.8425 37.3038 72.2543 35.5875L67.796 30.5042C67.5681 30.248 67.2527 30.0862 66.9117 30.0506C66.5707 30.0149 66.2287 30.1079 65.9527 30.3114C65.6768 30.5148 65.4868 30.814 65.42 31.1503C65.3532 31.4866 65.4145 31.8357 65.5918 32.1292L68.8835 38.0458C69.9668 39.7792 70.9113 41.5847 71.7168 43.4625C72.221 44.5125 72.5585 45.6375 72.7168 46.7958C72.8488 47.5238 72.8242 48.2716 72.6445 48.9893C72.4649 49.7071 72.1345 50.3783 71.6751 50.9583C71.0918 51.625 70.3418 52.125 69.5085 52.4167C69.4483 52.2598 69.3788 52.1068 69.3001 51.9583C68.4167 50.6549 67.4421 49.4157 66.3835 48.25L60.3835 41.4583C60.2686 41.2887 60.1214 41.1434 59.9503 41.0306C59.7792 40.9179 59.5876 40.84 59.3864 40.8013C58.9801 40.7231 58.5594 40.8096 58.2168 41.0417C57.8742 41.2737 57.6379 41.6324 57.5597 42.0387C57.4816 42.445 57.5681 42.8658 57.8001 43.2083L62.4668 51.1667C63.2585 52.2778 63.9946 53.4305 64.6751 54.625C65.0363 55.2389 65.314 55.8917 65.5085 56.5833C65.74 57.0602 65.8084 57.6 65.7029 58.1195C65.5975 58.639 65.3242 59.1094 64.9251 59.4583C64.3288 59.9498 63.6074 60.2657 62.8418 60.3708V59.9958C62.4001 59.0498 61.8551 58.1554 61.2168 57.3292C60.2168 56.1208 59.2585 54.9542 58.1751 53.8292C57.0918 52.7042 56.0918 51.6208 54.971 50.5833C54.7426 50.3042 54.4138 50.1259 54.0553 50.087C53.6968 50.048 53.3373 50.1514 53.0543 50.375C52.7724 50.6107 52.5931 50.9467 52.5542 51.312C52.5153 51.6774 52.62 52.0436 52.846 52.3333C53.5126 53.3333 54.096 54.2917 54.6793 55.3333C55.2626 56.375 56.3043 58.375 57.0543 59.9583L58.221 62.7875L57.6376 63.7875C57.3564 64.2377 56.9857 64.6254 56.5485 64.9264C56.1113 65.2274 55.6169 65.4354 55.096 65.5375C54.0895 65.8052 53.0192 65.6863 52.096 65.2042C51.9237 65.0972 51.732 65.0253 51.5319 64.9925C51.3318 64.9598 51.1271 64.9668 50.9297 65.0133C50.7323 65.0597 50.546 65.1446 50.3815 65.2632C50.217 65.3818 50.0775 65.5316 49.971 65.7042C49.7529 66.0586 49.6831 66.4846 49.7766 66.89C49.8702 67.2955 50.1196 67.6478 50.471 67.8708C51.8103 69.0318 53.5322 69.6552 55.3043 69.6208C56.9013 69.6637 58.477 69.2466 59.8436 68.4192C61.2103 67.5918 62.3103 66.3891 63.0126 64.9542C63.1376 64.543 63.221 64.1264 63.2626 63.7042C64.6952 63.8033 66.129 63.5306 67.4251 62.9125C68.6514 62.2261 69.6345 61.1762 70.239 59.9075C70.8435 58.6389 71.0395 57.2139 70.8001 55.8292C72.3407 55.5403 73.7778 54.8504 74.9668 53.8292C75.915 52.9644 76.6798 51.918 77.2158 50.752C77.7519 49.5861 78.0484 48.3243 78.0876 47.0417C77.9908 45.7794 77.739 44.534 77.3376 43.3333" fill="#8963D6"/>
<path fill-rule="evenodd" clip-rule="evenodd" d="M99.9542 38.2125C99.9055 38.0152 99.8183 37.8295 99.6976 37.666C99.5768 37.5026 99.425 37.3646 99.2507 37.26C99.0765 37.1555 98.8832 37.0864 98.6822 37.0568C98.4812 37.0272 98.2762 37.0376 98.0792 37.0875C95.5376 37.3791 93.0792 37.4625 90.6209 37.8791C88.9502 38.1525 87.3065 38.5707 85.7084 39.1291C83.872 39.8242 82.1238 40.7333 80.5001 41.8375C77.0834 43.2541 79.1251 46.0041 82.3334 45.0875L86.2084 44.2958L89.1251 43.5875L92.0001 42.6708C94.2917 41.8791 96.5376 41.0041 98.8292 40.0875C99.0265 40.0388 99.2122 39.9515 99.3757 39.8308C99.5392 39.7101 99.6771 39.5582 99.7817 39.3839C99.8862 39.2097 99.9553 39.0165 99.9849 38.8154C100.015 38.6144 100.004 38.4095 99.9542 38.2125Z" fill="#020202"/>
</svg>
