<svg width="100" height="82" viewBox="0 0 100 82" fill="none" xmlns="http://www.w3.org/2000/svg">
<path fill-rule="evenodd" clip-rule="evenodd" d="M58.4251 59.6791L43.5585 70.7166C42.6835 71.3833 41.3918 72.7166 40.0168 73.675C39.5615 74.1123 38.9767 74.3901 38.3501 74.4666C36.66 74.2276 35.102 73.4192 33.9335 72.175C31.7449 69.9858 29.7279 67.6316 27.9001 65.1333C24.6085 60.9666 21.4001 56.8041 18.3168 52.6375C15.2335 48.4708 12.4043 44.1 9.69595 39.6458C4.07512 30.5625 4.40846 33.7708 6.57096 31.4375C7.87651 29.9653 9.2654 28.5778 10.7376 27.275C12.2098 25.9722 13.7515 24.7639 15.3626 23.65L23.6918 17.0292L26.4418 14.9042C27.1085 14.9042 27.8168 15.6542 28.5668 16.3208C29.6001 17.2903 30.5723 18.318 31.4835 19.4042L35.646 24.4042L49.3043 42.6833C49.4219 42.842 49.5697 42.976 49.7391 43.0775C49.9085 43.1791 50.0963 43.2463 50.2917 43.2754C50.487 43.3044 50.6862 43.2946 50.8779 43.2467C51.0695 43.1987 51.2498 43.1135 51.4085 42.9958C51.5671 42.8782 51.7011 42.7304 51.8027 42.561C51.9043 42.3916 51.9715 42.2038 52.0005 42.0085C52.0295 41.8131 52.0198 41.6139 51.9718 41.4222C51.9238 41.2306 51.8386 41.0503 51.721 40.8916L38.5585 22.2L34.6001 16.95C33.2372 15.1647 31.6727 13.5429 29.9376 12.1166C28.8246 11.2344 27.4411 10.7635 26.021 10.7833C25.2661 10.919 24.5454 11.2022 23.9001 11.6167C22.9335 12.2333 22.0168 12.9139 21.1501 13.6583L12.821 19.825C11.0293 21.0333 9.32096 22.2833 7.65429 23.6167C5.98762 24.9972 4.40568 26.468 2.90846 28.0292C1.90309 29.0114 1.00882 30.1013 0.241789 31.2791C0.0811872 31.6471 -0.00170898 32.0443 -0.00170898 32.4458C-0.00170898 32.8473 0.0811872 33.2445 0.241789 33.6125C0.641788 34.6708 1.14179 35.6847 1.74179 36.6541C2.90846 38.6083 4.45012 40.525 5.53345 42.275C8.24179 46.8125 11.1168 51.3083 14.3626 55.6417C17.6085 59.975 21.0293 63.975 24.5668 68.1375C26.9901 71.2459 29.7876 74.0434 32.896 76.4666C34.496 77.6333 36.4126 78.3 38.396 78.3833C39.539 78.3271 40.6403 77.9358 41.5626 77.2583C43.0237 76.1194 44.4112 74.8972 45.7251 73.5917C48.5585 71.2583 51.3918 68.8416 54.0543 66.5541C55.9432 65.0291 57.8598 63.5291 59.8043 62.0541C60.0351 61.8351 60.18 61.5407 60.2127 61.2241C60.2454 60.9075 60.1639 60.5897 59.9827 60.3281C59.8016 60.0664 59.5328 59.8782 59.225 59.7974C58.9172 59.7166 58.5906 59.7485 58.3043 59.8875L58.4251 59.6791Z" fill="#8963D6"/>
<path fill-rule="evenodd" clip-rule="evenodd" d="M37.1419 37.5625C35.5083 35.9642 33.3727 34.9793 31.0965 34.7743C28.8203 34.5693 26.5431 35.1568 24.6502 36.4375C23.5677 37.3268 22.6798 38.4294 22.0418 39.6767C21.4039 40.924 21.0294 42.2892 20.9419 43.6875C20.8238 45.0981 21.0416 46.5166 21.5775 47.8268C22.1135 49.137 22.9523 50.3016 24.0252 51.225C25.6752 52.5083 27.7211 53.1833 29.8169 53.1416C31.7627 53.1708 33.6836 52.6541 35.3544 51.6416C35.6577 51.4591 35.8789 51.1667 35.9721 50.8252C36.0652 50.4837 36.023 50.1195 35.8544 49.8083C36.0607 49.8226 36.2678 49.7928 36.4617 49.721C36.6557 49.6492 36.8322 49.5369 36.9794 49.3916C37.8684 48.6891 38.5896 47.7973 39.0906 46.781C39.5916 45.7648 39.8599 44.6496 39.8759 43.5167C39.8918 42.3837 39.6551 41.2615 39.1829 40.2315C38.7107 39.2015 38.0149 38.2898 37.1461 37.5625M34.7294 47.1833C34.4864 47.4515 34.3518 47.8005 34.3518 48.1625C34.3518 48.5244 34.4864 48.8734 34.7294 49.1416H34.2294C32.9201 49.7098 31.4735 49.8836 30.0669 49.6416C28.8405 49.4911 27.7055 48.9162 26.8586 48.0166C26.3843 47.4453 26.0505 46.7708 25.8841 46.0472C25.7177 45.3236 25.7232 44.5711 25.9002 43.85C26.0313 42.4113 26.7191 41.0807 27.8169 40.1416C28.766 39.4484 29.9232 39.0995 31.0973 39.1525C32.2715 39.2056 33.3924 39.6573 34.2752 40.4333C34.8368 40.782 35.3073 41.2592 35.6479 41.8256C35.9886 42.392 36.1896 43.0314 36.2344 43.6908C36.2792 44.3503 36.1664 45.0109 35.9055 45.6182C35.6445 46.2255 35.2428 46.7619 34.7336 47.1833M72.2919 17.6958C71.8887 15.5147 71.3615 13.3585 70.7127 11.2375C70.1285 9.46238 69.375 7.74755 68.4627 6.11663C67.6996 4.74181 66.5171 3.64687 65.0877 2.99163C64.1004 2.63968 63.0441 2.52548 62.0044 2.65829C60.2099 2.99163 58.4488 3.44996 56.7211 4.03329C56.3836 4.12609 56.0955 4.34629 55.9172 4.64746C55.739 4.94862 55.6847 5.30722 55.7658 5.64765C55.8468 5.98808 56.0569 6.28373 56.3517 6.47227C56.6465 6.66081 57.003 6.72751 57.3461 6.65829C58.7211 6.38329 60.1086 6.20274 61.5086 6.11663C62.156 6.06949 62.8041 6.1991 63.3836 6.49163C63.9669 6.82496 64.2169 7.57496 64.5502 8.28329C65.1474 9.72218 65.5919 11.2083 65.8836 12.7416C66.6752 15.075 67.2169 17.45 67.8002 19.8208C68.3836 22.1916 69.1752 24.6958 69.8419 27.1125C70.5086 29.5291 70.8794 30.525 70.8794 30.5666C71.2127 32.3166 73.4627 30.9 73.6294 28.3583C72.7961 24.0666 73.1252 21.9833 72.2919 17.6958Z" fill="#8963D6"/>
<path fill-rule="evenodd" clip-rule="evenodd" d="M99.8667 59.8458C99.581 56.8155 98.8655 53.8412 97.7417 51.0125C96.6297 48.1501 95.0529 45.4907 93.0751 43.1417C88.3127 37.6932 81.9399 33.9019 74.8792 32.3167C73.3792 31.6083 72.2542 32.6917 72.2959 34.4833C71.6505 36.8142 70.6529 39.0329 69.3376 41.0625C67.744 42.342 65.8331 43.1651 63.8086 43.4439C61.7841 43.7227 59.7218 43.4469 57.8417 42.6458C56.6783 42.4023 55.4676 42.5336 54.3834 43.0208C53.0384 43.4417 51.8694 44.2936 51.0568 45.445C50.2442 46.5965 49.8333 47.9834 49.8876 49.3917C49.8817 50.6917 50.1801 51.9751 50.7589 53.1392C51.3377 54.3033 52.1809 55.3158 53.2209 56.0958C53.7626 56.3875 54.8876 56.9292 56.3042 57.5125C59.5126 58.8458 64.6334 60.5958 66.5917 61.6792C66.2584 62.5125 67.4667 64.7208 67.6751 65.3458C68.6621 68.1198 70.1744 70.6775 72.1292 72.8792C72.8717 73.732 73.7964 74.407 74.835 74.8542C75.8736 75.3013 76.9994 75.5092 78.1292 75.4625C78.3262 75.4625 78.5213 75.4237 78.7033 75.3483C78.8852 75.2729 79.0506 75.1624 79.1899 75.0232C79.3292 74.8839 79.4397 74.7185 79.5151 74.5365C79.5904 74.3545 79.6292 74.1595 79.6292 73.9625C79.6292 73.7655 79.5904 73.5705 79.5151 73.3885C79.4397 73.2065 79.3292 73.0411 79.1899 72.9018C79.0506 72.7625 78.8852 72.6521 78.7033 72.5767C78.5213 72.5013 78.3262 72.4625 78.1292 72.4625C77.4569 72.4202 76.8022 72.2303 76.2117 71.9062C75.6211 71.5822 75.1093 71.1319 74.7126 70.5875C73.2268 68.6598 72.1493 66.4495 71.5459 64.0917C71.3376 63.3417 71.2542 60.9667 70.9209 59.925C70.7673 59.3486 70.4126 58.8461 69.9209 58.5083C68.9362 57.8777 67.9056 57.322 66.8376 56.8458C63.2126 55.1792 57.3042 52.6792 55.9292 51.8458C55.63 51.53 55.3981 51.1565 55.2476 50.7483C55.0972 50.34 55.0314 49.9053 55.0542 49.4708C55.017 49.106 55.0982 48.7388 55.2858 48.4236C55.4734 48.1085 55.7574 47.8621 56.0959 47.7208C56.5782 47.6351 57.0719 47.6351 57.5542 47.7208C59.5876 47.9264 61.6278 48.0097 63.6751 47.9708C65.5102 47.8092 67.287 47.2439 68.8782 46.3154C70.4694 45.3869 71.8356 44.1182 72.8792 42.6C74.1917 40.4571 74.8841 37.9921 74.8792 35.4792C80.594 37.5796 85.582 41.2831 89.2459 46.1458C90.7876 48.2167 92.0459 50.4875 92.9959 52.8875C93.9709 55.3167 94.6709 57.8458 95.0792 60.4292C96.0376 66.6958 95.7501 73.0958 94.2459 79.2542C94.1421 79.6408 94.1928 80.0526 94.3872 80.4025C94.5816 80.7524 94.9045 81.013 95.2876 81.1292C95.6687 81.2317 96.075 81.1798 96.4182 80.9848C96.7613 80.7898 97.0138 80.4674 97.1209 80.0875C99.4376 73.6042 100.367 66.7125 99.8667 59.8458Z" fill="#020202"/>
<path fill-rule="evenodd" clip-rule="evenodd" d="M61.8834 32.9417C60.6751 28.775 59.5918 24.6083 58.4251 20.4417C57.6751 17.6542 56.8001 14.9042 56.0084 12.1166C55.359 9.20718 54.3072 6.40242 52.8834 3.78332C52.4136 2.97631 51.7632 2.28919 50.9831 1.7759C50.203 1.26261 49.3146 0.937117 48.3876 0.824983C47.7226 0.785102 47.0594 0.929269 46.4709 1.24165C45.407 1.88054 44.3793 2.57498 43.3876 3.32498L33.2293 9.78332C33.0421 9.83547 32.8687 9.92788 32.721 10.0541C32.5733 10.1803 32.455 10.3372 32.3743 10.5139C32.2937 10.6906 32.2526 10.8828 32.2539 11.0771C32.2553 11.2713 32.2991 11.4629 32.3823 11.6385C32.4654 11.814 32.5859 11.9693 32.7354 12.0934C32.8848 12.2175 33.0595 12.3075 33.2474 12.357C33.4352 12.4065 33.6316 12.4144 33.8228 12.3801C34.014 12.3457 34.1954 12.2701 34.3543 12.1583L45.3501 6.90832C47.2251 5.94998 47.7668 3.19998 49.5168 8.15832C50.2668 10.1583 50.7251 12.325 51.0584 13.5333C52.6793 18.4875 54.2626 23.4 56.0126 28.3167C57.7626 33.2333 58.8876 35.025 60.7626 39.4375C61.5918 41.8542 63.7584 42.4375 63.7584 40.6458C62.8834 37.7292 62.7584 35.8541 61.8834 32.9375" fill="#8963D6"/>
</svg>
